<svg width="108" height="27" viewBox="0 0 108 27" fill="none" xmlns="http://www.w3.org/2000/svg">
<path d="M0.832031 14.1044V10.3544L15.832 3.74929V8.06392L5.56215 12.1868L5.70064 11.9631V12.4957L5.56215 12.272L15.832 16.3949V20.7095L0.832031 14.1044ZM39.0744 8.82031H34.4082C34.3229 8.21662 34.1489 7.6804 33.8862 7.21165C33.6234 6.73579 33.286 6.33097 32.8741 5.99716C32.4621 5.66335 31.9863 5.40767 31.4465 5.23011C30.9138 5.05256 30.335 4.96378 29.71 4.96378C28.5808 4.96378 27.5971 5.24432 26.759 5.8054C25.921 6.35937 25.2711 7.16903 24.8094 8.23438C24.3478 9.29261 24.117 10.5781 24.117 12.0909C24.117 13.6463 24.3478 14.9531 24.8094 16.0114C25.2782 17.0696 25.9316 17.8686 26.7697 18.4084C27.6077 18.9482 28.5772 19.218 29.6781 19.218C30.296 19.218 30.8677 19.1364 31.3933 18.973C31.9259 18.8097 32.3982 18.5717 32.8102 18.2592C33.2221 17.9396 33.563 17.5526 33.8329 17.098C34.1099 16.6435 34.3016 16.125 34.4082 15.5426L39.0744 15.5639C38.9536 16.5653 38.6518 17.5312 38.1688 18.4616C37.693 19.3849 37.0502 20.2124 36.2406 20.9439C35.438 21.6683 34.4792 22.2436 33.3641 22.6697C32.2562 23.0888 31.0026 23.2983 29.6035 23.2983C27.6575 23.2983 25.9174 22.858 24.3833 21.9773C22.8563 21.0966 21.6489 19.8217 20.7612 18.1527C19.8805 16.4837 19.4401 14.4631 19.4401 12.0909C19.4401 9.71165 19.8876 7.6875 20.7825 6.01847C21.6773 4.34943 22.8918 3.07812 24.4259 2.20455C25.96 1.32386 27.6859 0.883522 29.6035 0.883522C30.8677 0.883522 32.0396 1.06108 33.1191 1.41619C34.2058 1.77131 35.1681 2.28977 36.0062 2.97159C36.8442 3.64631 37.5261 4.47372 38.0516 5.45383C38.5843 6.43395 38.9252 7.55611 39.0744 8.82031ZM41.7822 23V1.18182H50.3902C52.0379 1.18182 53.4442 1.47656 54.6089 2.06605C55.7808 2.64844 56.6722 3.47585 57.283 4.5483C57.9009 5.61364 58.2098 6.86719 58.2098 8.30895C58.2098 9.75781 57.8973 11.0043 57.2723 12.0483C56.6473 13.0852 55.7418 13.8807 54.5557 14.4347C53.3767 14.9886 51.9491 15.2656 50.273 15.2656H44.5095V11.5582H49.5273C50.408 11.5582 51.1395 11.4375 51.7219 11.196C52.3043 10.9545 52.7375 10.5923 53.0216 10.1094C53.3128 9.62642 53.4584 9.02628 53.4584 8.30895C53.4584 7.58452 53.3128 6.97372 53.0216 6.47656C52.7375 5.9794 52.3007 5.60298 51.7112 5.3473C51.1288 5.08452 50.3937 4.95312 49.506 4.95312H46.3952V23H41.7822ZM53.5649 13.071L58.9875 23H53.8952L48.5898 13.071H53.5649ZM60.6354 23V20.2621L71.5232 4.98508H60.6141V1.18182H77.3186V3.91974L66.4202 19.1967H77.3399V23H60.6354ZM89.6971 0.159089L82.6659 26.2812H78.7561L85.7873 0.159089H89.6971ZM107.168 16.1499L92.168 22.755V18.4403L102.438 14.3175L102.299 14.5412V14.0085L102.438 14.2322L92.168 10.1094V5.79474L107.168 12.3999V16.1499Z" fill="#EB8DB5"/>
</svg>
